<?xml version="1.0" standalone="no"?>
<!DOCTYPE svg PUBLIC "-//W3C//DTD SVG 20010904//EN"
 "http://www.w3.org/TR/2001/REC-SVG-20010904/DTD/svg10.dtd">
<svg version="1.0" xmlns="http://www.w3.org/2000/svg"
 width="512.000000pt" height="512.000000pt" viewBox="0 0 512.000000 512.000000"
 preserveAspectRatio="xMidYMid meet">
<metadata>
Created by potrace 1.14, written by Peter Selinger 2001-2017
</metadata>
<g transform="translate(0.000000,512.000000) scale(0.100000,-0.100000)"
fill="#000000" stroke="none">
<path d="M1133 5102 c-12 -9 -26 -28 -31 -42 -9 -25 -8 -252 2 -300 2 -14 7
-43 11 -65 19 -134 92 -332 172 -470 66 -114 120 -181 224 -278 l92 -86 -45
-78 c-154 -267 -288 -611 -313 -798 -15 -113 -6 -280 22 -410 3 -16 7 -37 8
-45 1 -8 5 -25 9 -37 7 -23 6 -23 -91 -24 -121 -1 -135 -3 -200 -35 -137 -67
-223 -232 -192 -371 l7 -33 -154 0 c-193 0 -227 -12 -280 -95 -17 -25 -19 -51
-20 -198 -1 -185 5 -223 48 -267 29 -31 94 -64 108 -55 5 3 11 2 14 -3 3 -5 6
-112 7 -238 2 -320 28 -443 133 -629 155 -277 423 -467 746 -530 63 -12 250
-14 1150 -14 1010 -1 1080 0 1165 18 164 34 300 93 430 186 195 141 362 388
404 595 30 151 28 130 30 391 l1 216 43 12 c23 7 57 25 74 40 51 45 62 95 59
284 -2 162 -3 166 -30 207 -45 68 -83 80 -264 80 l-152 0 3 63 c8 148 -68 279
-201 344 -51 25 -70 28 -175 32 -104 3 -117 5 -113 20 36 116 62 385 45 471
-4 19 -10 53 -13 75 -7 57 -52 204 -93 310 -39 101 -180 394 -225 466 l-29 48
114 113 c123 122 178 199 250 348 41 86 91 221 101 274 2 12 12 57 21 101 19
93 28 324 13 366 -11 31 -38 51 -75 56 -30 5 -211 -40 -343 -84 -146 -49 -378
-163 -453 -223 -7 -5 -41 -33 -77 -61 -232 -185 -391 -416 -474 -690 -14 -47
-26 -93 -26 -102 0 -9 -4 -17 -10 -17 -5 0 -10 9 -10 19 0 27 -47 175 -76 239
-13 29 -24 55 -24 57 0 2 -22 43 -49 90 -210 364 -568 615 -1054 740 -135 35
-187 39 -214 17z"/>
</g>
</svg>
